<svg width="49" height="49" viewBox="0 0 49 49" fill="none" xmlns="http://www.w3.org/2000/svg">
<path d="M5.01025 32.7902C5.58455 33.3643 6.36337 33.6868 7.17544 33.6868C7.9875 33.6868 8.76632 33.3643 9.34062 32.7902L24.5 17.6308L39.6594 32.7902C40.237 33.348 41.0106 33.6567 41.8135 33.6497C42.6165 33.6428 43.3846 33.3207 43.9524 32.7529C44.5203 32.1851 44.8423 31.417 44.8493 30.614C44.8563 29.811 44.5476 29.0374 43.9897 28.4598L26.6652 11.1352C26.0909 10.5611 25.3121 10.2386 24.5 10.2386C23.6879 10.2386 22.9091 10.5611 22.3348 11.1352L5.01025 28.4598C4.43612 29.0341 4.11359 29.8129 4.11359 30.625C4.11359 31.4371 4.43612 32.2159 5.01025 32.7902Z" fill="black"/>
</svg>
